<svg width="20" height="21" viewBox="0 0 20 21" fill="none" xmlns="http://www.w3.org/2000/svg">
<path d="M10 18.5C14.411 18.5 18 14.9113 18 10.5C18 9.73861 17.8937 8.98828 17.6833 8.26969C17.5796 7.91634 17.2106 7.71338 16.8563 7.81706C16.5026 7.92041 16.3003 8.29069 16.4036 8.64404C16.578 9.24105 16.6667 9.86572 16.6667 10.5C16.6667 14.1759 13.6759 17.1667 10 17.1667C6.32406 17.1667 3.33333 14.1759 3.33333 10.5C3.33333 6.82406 6.32406 3.83333 10 3.83333C11.3359 3.83333 12.6213 4.22396 13.717 4.96273C14.022 5.16862 14.4367 5.08773 14.6423 4.78271C14.848 4.47738 14.7677 4.06299 14.4624 3.85726C13.1457 2.9694 11.6027 2.5 10 2.5C5.58903 2.5 2 6.0887 2 10.5C2 14.9113 5.58903 18.5 10 18.5Z" fill="#429256"/>
<path d="M16.8618 4.02869L9.99984 10.8903L7.80452 8.69535C7.54411 8.4351 7.12223 8.4351 6.86182 8.69535C6.60156 8.95577 6.60156 9.37765 6.86182 9.63806L9.52848 12.3047C9.65885 12.4351 9.8291 12.5 9.99984 12.5C10.1706 12.5 10.3408 12.4351 10.4712 12.3047L17.8045 4.9714C18.0648 4.71098 18.0648 4.2891 17.8045 4.02869C17.5441 3.76843 17.1222 3.76843 16.8618 4.02869Z" fill="#429256"/>
</svg>
