<svg width="20" height="20" viewBox="0 0 20 20" fill="none" xmlns="http://www.w3.org/2000/svg">
<g clip-path="url(#clip0_4026_19543)">
<path d="M10 7.50004C11.8417 7.50004 13.3333 6.00837 13.3333 4.16671C13.3333 2.32504 11.8417 0.833374 10 0.833374C8.15833 0.833374 6.66667 2.32504 6.66667 4.16671C6.66667 6.00837 8.15833 7.50004 10 7.50004ZM10 2.50004C10.9167 2.50004 11.6667 3.25004 11.6667 4.16671C11.6667 5.08337 10.9167 5.83337 10 5.83337C9.08333 5.83337 8.33333 5.08337 8.33333 4.16671C8.33333 3.25004 9.08333 2.50004 10 2.50004ZM10 9.62504C8.03333 7.79171 5.4 6.66671 2.5 6.66671V15.8334C5.4 15.8334 8.03333 16.9584 10 18.7917C11.9667 16.9667 14.6 15.8334 17.5 15.8334V6.66671C14.6 6.66671 11.9667 7.79171 10 9.62504ZM15.8333 14.275C13.725 14.5584 11.725 15.3584 10 16.625C8.28333 15.3584 6.275 14.55 4.16667 14.2667V8.47504C5.91667 8.79171 7.54167 9.60004 8.86667 10.8334L10 11.9L11.1333 10.8417C12.4583 9.60837 14.0833 8.80004 15.8333 8.48337V14.275Z" fill="white"/>
</g>
<defs>
<clipPath id="clip0_4026_19543">
<rect width="20" height="20" fill="white"/>
</clipPath>
</defs>
</svg>
