<svg width="20" height="20" viewBox="0 0 20 20" fill="none" xmlns="http://www.w3.org/2000/svg">
<g clip-path="url(#clip0_4026_19667)">
<path d="M15 7.49992L13.825 6.31659L8.33333 11.8083L6.175 9.65825L5 10.8333L8.33333 14.1666L15 7.49992ZM15.8333 2.49992H12.35C12 1.53325 11.0833 0.833252 10 0.833252C8.91667 0.833252 8 1.53325 7.65 2.49992H4.16667C4.05 2.49992 3.94167 2.50825 3.83333 2.53325C3.50833 2.59992 3.21667 2.76659 2.99167 2.99159C2.84167 3.14159 2.71667 3.32492 2.63333 3.52492C2.55 3.71659 2.5 3.93325 2.5 4.16659V15.8333C2.5 16.0583 2.55 16.2833 2.63333 16.4833C2.71667 16.6833 2.84167 16.8583 2.99167 17.0166C3.21667 17.2416 3.50833 17.4083 3.83333 17.4749C3.94167 17.4916 4.05 17.4999 4.16667 17.4999H15.8333C16.75 17.4999 17.5 16.7499 17.5 15.8333V4.16659C17.5 3.24992 16.75 2.49992 15.8333 2.49992ZM10 2.29159C10.3417 2.29159 10.625 2.57492 10.625 2.91659C10.625 3.25825 10.3417 3.54159 10 3.54159C9.65833 3.54159 9.375 3.25825 9.375 2.91659C9.375 2.57492 9.65833 2.29159 10 2.29159ZM15.8333 15.8333H4.16667V4.16659H15.8333V15.8333Z" fill="white"/>
</g>
<defs>
<clipPath id="clip0_4026_19667">
<rect width="20" height="20" fill="white"/>
</clipPath>
</defs>
</svg>
