<svg width="33" height="32" viewBox="0 0 33 32" fill="none" xmlns="http://www.w3.org/2000/svg">
<g clip-path="url(#clip0_4026_19757)">
<path d="M16.6535 2.6665C9.2935 2.6665 3.3335 8.63984 3.3335 15.9998C3.3335 23.3598 9.2935 29.3332 16.6535 29.3332C24.0268 29.3332 30.0002 23.3598 30.0002 15.9998C30.0002 8.63984 24.0268 2.6665 16.6535 2.6665ZM16.6668 26.6665C10.7735 26.6665 6.00016 21.8932 6.00016 15.9998C6.00016 10.1065 10.7735 5.33317 16.6668 5.33317C22.5602 5.33317 27.3335 10.1065 27.3335 15.9998C27.3335 21.8932 22.5602 26.6665 16.6668 26.6665ZM17.3335 9.33317H15.3335V17.3332L22.3335 21.5332L23.3335 19.8932L17.3335 16.3332V9.33317Z" fill="#175EFB"/>
</g>
<defs>
<clipPath id="clip0_4026_19757">
<rect width="32" height="32" fill="white" transform="translate(0.666748)"/>
</clipPath>
</defs>
</svg>
