<svg width="33" height="32" viewBox="0 0 33 32" fill="none" xmlns="http://www.w3.org/2000/svg">
<g clip-path="url(#clip0_4026_19767)">
<path d="M12.3333 18.3332C9.21333 18.3332 3 19.8932 3 22.9998V25.3332H21.6667V22.9998C21.6667 19.8932 15.4533 18.3332 12.3333 18.3332ZM6.12 22.6665C7.24 21.8932 9.94667 20.9998 12.3333 20.9998C14.72 20.9998 17.4267 21.8932 18.5467 22.6665H6.12ZM12.3333 15.9998C14.9067 15.9998 17 13.9065 17 11.3332C17 8.75984 14.9067 6.6665 12.3333 6.6665C9.76 6.6665 7.66667 8.75984 7.66667 11.3332C7.66667 13.9065 9.76 15.9998 12.3333 15.9998ZM12.3333 9.33317C13.44 9.33317 14.3333 10.2265 14.3333 11.3332C14.3333 12.4398 13.44 13.3332 12.3333 13.3332C11.2267 13.3332 10.3333 12.4398 10.3333 11.3332C10.3333 10.2265 11.2267 9.33317 12.3333 9.33317ZM21.72 18.4132C23.2667 19.5332 24.3333 21.0265 24.3333 22.9998V25.3332H29.6667V22.9998C29.6667 20.3065 25 18.7732 21.72 18.4132ZM20.3333 15.9998C22.9067 15.9998 25 13.9065 25 11.3332C25 8.75984 22.9067 6.6665 20.3333 6.6665C19.6133 6.6665 18.9467 6.83984 18.3333 7.13317C19.1733 8.31984 19.6667 9.77317 19.6667 11.3332C19.6667 12.8932 19.1733 14.3465 18.3333 15.5332C18.9467 15.8265 19.6133 15.9998 20.3333 15.9998Z" fill="#9F21FB"/>
</g>
<defs>
<clipPath id="clip0_4026_19767">
<rect width="32" height="32" fill="white" transform="translate(0.333252)"/>
</clipPath>
</defs>
</svg>
