<svg width="32" height="32" viewBox="0 0 32 32" fill="none" xmlns="http://www.w3.org/2000/svg">
<g clip-path="url(#clip0_4026_19857)">
<path d="M14.6667 23.9998H17.3334V21.3332H14.6667V23.9998ZM16.0001 2.6665C8.64008 2.6665 2.66675 8.63984 2.66675 15.9998C2.66675 23.3598 8.64008 29.3332 16.0001 29.3332C23.3601 29.3332 29.3334 23.3598 29.3334 15.9998C29.3334 8.63984 23.3601 2.6665 16.0001 2.6665ZM16.0001 26.6665C10.1201 26.6665 5.33341 21.8798 5.33341 15.9998C5.33341 10.1198 10.1201 5.33317 16.0001 5.33317C21.8801 5.33317 26.6667 10.1198 26.6667 15.9998C26.6667 21.8798 21.8801 26.6665 16.0001 26.6665ZM16.0001 7.99984C13.0534 7.99984 10.6667 10.3865 10.6667 13.3332H13.3334C13.3334 11.8665 14.5334 10.6665 16.0001 10.6665C17.4667 10.6665 18.6667 11.8665 18.6667 13.3332C18.6667 15.9998 14.6667 15.6665 14.6667 19.9998H17.3334C17.3334 16.9998 21.3334 16.6665 21.3334 13.3332C21.3334 10.3865 18.9467 7.99984 16.0001 7.99984Z" fill="#276EF1"/>
</g>
<defs>
<clipPath id="clip0_4026_19857">
<rect width="32" height="32" fill="white"/>
</clipPath>
</defs>
</svg>
