<svg width="32" height="32" viewBox="0 0 32 32" fill="none" xmlns="http://www.w3.org/2000/svg">
<g clip-path="url(#clip0_4026_19831)">
<path d="M14.6666 23.9998H17.3333V21.3332H14.6666V23.9998ZM16 2.6665C8.63996 2.6665 2.66663 8.63984 2.66663 15.9998C2.66663 23.3598 8.63996 29.3332 16 29.3332C23.36 29.3332 29.3333 23.3598 29.3333 15.9998C29.3333 8.63984 23.36 2.6665 16 2.6665ZM16 26.6665C10.12 26.6665 5.33329 21.8798 5.33329 15.9998C5.33329 10.1198 10.12 5.33317 16 5.33317C21.88 5.33317 26.6666 10.1198 26.6666 15.9998C26.6666 21.8798 21.88 26.6665 16 26.6665ZM16 7.99984C13.0533 7.99984 10.6666 10.3865 10.6666 13.3332H13.3333C13.3333 11.8665 14.5333 10.6665 16 10.6665C17.4666 10.6665 18.6666 11.8665 18.6666 13.3332C18.6666 15.9998 14.6666 15.6665 14.6666 19.9998H17.3333C17.3333 16.9998 21.3333 16.6665 21.3333 13.3332C21.3333 10.3865 18.9466 7.99984 16 7.99984Z" fill="#276EF1"/>
</g>
<defs>
<clipPath id="clip0_4026_19831">
<rect width="32" height="32" fill="white"/>
</clipPath>
</defs>
</svg>
