<svg width="40" height="40" viewBox="0 0 40 40" fill="none" xmlns="http://www.w3.org/2000/svg">
<path d="M28.3334 25.409V36.8615C28.3334 37.3216 27.9602 37.695 27.5001 37.695C27.3491 37.695 27.2009 37.6538 27.0714 37.5761L20.0001 33.3333L12.9288 37.5761C12.5342 37.8128 12.0223 37.6848 11.7855 37.2903C11.7078 37.1606 11.6667 37.0125 11.6667 36.8615V25.409C8.61853 22.9655 6.66675 19.2106 6.66675 15C6.66675 7.63616 12.6363 1.66663 20.0001 1.66663C27.3639 1.66663 33.3334 7.63616 33.3334 15C33.3334 19.2106 31.3816 22.9655 28.3334 25.409ZM15.0001 27.3641V32.446L20.0001 29.446L25.0001 32.446V27.3641C23.4561 27.9891 21.7682 28.3333 20.0001 28.3333C18.2319 28.3333 16.5441 27.9891 15.0001 27.3641ZM20.0001 25C25.5229 25 30.0001 20.5228 30.0001 15C30.0001 9.47711 25.5229 4.99996 20.0001 4.99996C14.4772 4.99996 10.0001 9.47711 10.0001 15C10.0001 20.5228 14.4772 25 20.0001 25Z" fill="white"/>
</svg>
