<svg width="28" height="28" viewBox="0 0 28 28" fill="none" xmlns="http://www.w3.org/2000/svg">
<path d="M24.6667 5.99996H19.3334V3.33329C19.3334 1.86663 18.1334 0.666626 16.6667 0.666626H11.3334C9.86675 0.666626 8.66675 1.86663 8.66675 3.33329V5.99996H3.33341C1.86675 5.99996 0.666748 7.19996 0.666748 8.66663V24.6666C0.666748 26.1333 1.86675 27.3333 3.33341 27.3333H24.6667C26.1334 27.3333 27.3334 26.1333 27.3334 24.6666V8.66663C27.3334 7.19996 26.1334 5.99996 24.6667 5.99996ZM11.3334 3.33329H16.6667V5.99996H11.3334V3.33329ZM24.6667 24.6666H3.33341V8.66663H24.6667V24.6666Z" fill="white"/>
<path d="M15.3334 11.3333H12.6667V15.3333H8.66675V17.9999H12.6667V21.9999H15.3334V17.9999H19.3334V15.3333H15.3334V11.3333Z" fill="white"/>
</svg>
