<svg width="32" height="32" viewBox="0 0 32 32" fill="none" xmlns="http://www.w3.org/2000/svg">
<g clip-path="url(#clip0_4026_19850)">
<path d="M15.9866 2.6665C8.62663 2.6665 2.66663 8.63984 2.66663 15.9998C2.66663 23.3598 8.62663 29.3332 15.9866 29.3332C23.36 29.3332 29.3333 23.3598 29.3333 15.9998C29.3333 8.63984 23.36 2.6665 15.9866 2.6665ZM16 26.6665C10.1066 26.6665 5.33329 21.8932 5.33329 15.9998C5.33329 10.1065 10.1066 5.33317 16 5.33317C21.8933 5.33317 26.6666 10.1065 26.6666 15.9998C26.6666 21.8932 21.8933 26.6665 16 26.6665ZM16.6666 9.33317H14.6666V17.3332L21.6666 21.5332L22.6666 19.8932L16.6666 16.3332V9.33317Z" fill="white"/>
</g>
<defs>
<clipPath id="clip0_4026_19850">
<rect width="32" height="32" fill="white"/>
</clipPath>
</defs>
</svg>
