<svg width="20" height="20" viewBox="0 0 20 20" fill="none" xmlns="http://www.w3.org/2000/svg">
<path d="M14.1667 12.7044V18.4307C14.1667 18.6608 13.9801 18.8474 13.75 18.8474C13.6745 18.8474 13.6005 18.8268 13.5357 18.788L10 16.6666L6.46442 18.788C6.26709 18.9063 6.01115 18.8423 5.89275 18.6451C5.8539 18.5803 5.83337 18.5062 5.83337 18.4307V12.7044C4.30927 11.4827 3.33337 9.60525 3.33337 7.49992C3.33337 3.81802 6.31814 0.833252 10 0.833252C13.682 0.833252 16.6667 3.81802 16.6667 7.49992C16.6667 9.60525 15.6908 11.4827 14.1667 12.7044ZM7.50004 13.682V16.2229L10 14.7229L12.5 16.2229V13.682C11.728 13.9945 10.8841 14.1666 10 14.1666C9.11596 14.1666 8.27207 13.9945 7.50004 13.682ZM10 12.4999C12.7615 12.4999 15 10.2613 15 7.49992C15 4.73849 12.7615 2.49992 10 2.49992C7.23862 2.49992 5.00004 4.73849 5.00004 7.49992C5.00004 10.2613 7.23862 12.4999 10 12.4999Z" fill="white"/>
</svg>
