<svg width="32" height="32" viewBox="0 0 32 32" fill="none" xmlns="http://www.w3.org/2000/svg">
<g clip-path="url(#clip0_4026_19623)">
<path d="M12.0001 18.3334C8.88008 18.3334 2.66675 19.8934 2.66675 23.0001V25.3334H21.3334V23.0001C21.3334 19.8934 15.1201 18.3334 12.0001 18.3334ZM5.78675 22.6667C6.90675 21.8934 9.61341 21.0001 12.0001 21.0001C14.3867 21.0001 17.0934 21.8934 18.2134 22.6667H5.78675ZM12.0001 16.0001C14.5734 16.0001 16.6667 13.9067 16.6667 11.3334C16.6667 8.76008 14.5734 6.66675 12.0001 6.66675C9.42675 6.66675 7.33342 8.76008 7.33342 11.3334C7.33342 13.9067 9.42675 16.0001 12.0001 16.0001ZM12.0001 9.33341C13.1067 9.33341 14.0001 10.2267 14.0001 11.3334C14.0001 12.4401 13.1067 13.3334 12.0001 13.3334C10.8934 13.3334 10.0001 12.4401 10.0001 11.3334C10.0001 10.2267 10.8934 9.33341 12.0001 9.33341ZM21.3867 18.4134C22.9334 19.5334 24.0001 21.0267 24.0001 23.0001V25.3334H29.3334V23.0001C29.3334 20.3067 24.6667 18.7734 21.3867 18.4134ZM20.0001 16.0001C22.5734 16.0001 24.6667 13.9067 24.6667 11.3334C24.6667 8.76008 22.5734 6.66675 20.0001 6.66675C19.2801 6.66675 18.6134 6.84008 18.0001 7.13341C18.8401 8.32008 19.3334 9.77341 19.3334 11.3334C19.3334 12.8934 18.8401 14.3467 18.0001 15.5334C18.6134 15.8267 19.2801 16.0001 20.0001 16.0001Z" fill="white"/>
</g>
<defs>
<clipPath id="clip0_4026_19623">
<rect width="32" height="32" fill="white"/>
</clipPath>
</defs>
</svg>
